<svg xmlns="http://www.w3.org/2000/svg" width="277.093" height="68.934" viewBox="0 0 277.093 68.934">
  <path d="M285.154,141.688c-2.916-1.044-11.981-2.126-21.108-2.924s-18.047-1.389-25.914-1.7c-5.237-.206-10.784-.3-17.035-.3-.074-1.786-.117-3.629-.163-5.732-.132-6.054-.02-7.4,0-11.215.015-2.931-2.186-4.632-4.436-4.235-2.56.452-3,2.308-2.919,5.095s.228,8.638.461,12.454c.083,1.271.173,2.491.268,3.672-1.052.011-2.113.023-3.209.039-10.642.152-20.813.765-32.038,1.652-5.5.435-11.647,1.019-18.028,1.724-.037-.228-.078-.467-.113-.688-.708-4.438-.991-5.638-2.849-19.97-.47-2.467-1.981-3.291-5.1-2.9-1.981.248-2.607,1.765-3.084,3.864a71.7,71.7,0,0,1-5.072,15.012,58.173,58.173,0,0,1-3.837,7.23l-.171.024c-13.154,1.907-19.131,2.428-36.015,5.508-16.771,3.06-24.055,4.561-40.628,8.143a32.66,32.66,0,0,1,1.495-7.294,26.756,26.756,0,0,1,4.673-8.343c2.229-2.658,4.958-5.479,8.33-7.1a21.154,21.154,0,0,1,10.62-2.225,8.381,8.381,0,0,1,8.147,6.975,2.009,2.009,0,0,0,1.6,1.563,2.414,2.414,0,0,0,2.639-1.175c.5-1.056.366-5.336-2.379-8.55s-8-4.446-12.66-4.216a25.98,25.98,0,0,0-17.467,7.307,38.63,38.63,0,0,0-5.715,7.108,46.444,46.444,0,0,0-3.629,7.243,35.261,35.261,0,0,0-2.264,9.469c-.023.243-.025.472-.043.712-16.917,3.842-39.93,9.636-43.029,10.8-3.509,1.316-3.287,4.3-2.631,5.526s2.017,1.929,4.419,1.439c2.2-.448,20.168-6.046,41.351-11.213A22.432,22.432,0,0,0,61.693,175a15.787,15.787,0,0,0,6.119,4.954,32.854,32.854,0,0,0,10.6,2.688c4.424.438,15.163.024,26.917-4.358a99.1,99.1,0,0,0,21.184-11.278,63.845,63.845,0,0,0,18.179-19.317l.481-.068c3.331-.476,6.48-.9,9.5-1.276.414,2.487.886,5.135,1.307,7.025.353,1.589,1.5,6.647,3.125,11.586a103.6,103.6,0,0,0,4.44,11.27,20.092,20.092,0,0,0,4.956,7.363,3.453,3.453,0,0,0,4.237.234c1.545-1.085,1.016-3.36.668-4.134-.637-1.446-.751-1.586-2.909-6.045a130.863,130.863,0,0,1-6.257-17.906c-.9-3.551-1.658-7.056-2.272-10.254,7.671-.845,14.566-1.412,21.422-1.856,11.475-.743,16.086-.913,24.87-1.027,2.03-.026,4.268-.035,6.6-.03.125,1.13.253,2.226.388,3.266.693,5.337,1.13,7.415,2.141,12.473s3.727,14.729,5.174,17.675a3.329,3.329,0,0,0,4.539,1.391c1.228-.567,1.667-1.566,1.437-3.464s-2.092-7.409-3.011-11.073a147,147,0,0,1-3.4-15.356c-.268-1.781-.464-3.363-.617-4.859,5.789.076,11.559.229,15.844.433,7.735.369,19.509,1.369,28.978,2.624s17.226,2.966,18.824,2.852,2.852-.57,3.308-2.624S287.481,142.522,285.154,141.688ZM132.717,153.415A78.746,78.746,0,0,1,108.7,170.452c-5.6,2.418-13.2,5.3-21.825,5.913-4.2.3-12.049.9-17.274-2.532-4.9-3.218-5.173-8.769-5.359-10.934,23.609-5.482,28.674-6.628,43.28-9.346,11.718-2.18,19.034-3.276,29.184-4.726C135.382,150.5,134.035,152.051,132.717,153.415Zm15.262-11.6a66.772,66.772,0,0,0,4.542-10.982c.606,4.582,1.056,8.526,1.056,8.526s.1.665.257,1.713Q150.912,141.423,147.979,141.81Z" transform="translate(-11.454 -115.533)"/>
</svg>
