<svg xmlns="http://www.w3.org/2000/svg" width="1.773in" height="0.989in" viewBox="0 0 127.627 71.173">
  <g>
    <path d="M8.187,72.143c0-20.348,13.279-35.729,33.627-35.729,7.93,0,14.617,2.293,19.489,6.018,5.924,4.49,9.363,11.178,10.222,18.82H54.616c-.86-6.114-5.636-10.8-12.9-10.8-11.081,0-16.336,9.267-16.336,21.686,0,12.515,6.305,21.591,16.431,21.591,7.548,0,12.516-4.777,13.28-11.369H72a26.92,26.92,0,0,1-8.216,17.483c-5.254,5.063-12.228,7.738-21.877,7.738C21.848,107.586,8.187,92.587,8.187,72.143Z" transform="translate(-8.187 -36.414)"/>
    <path d="M78.016,37.751H94.925v25.89H118.9V37.751h16.909v68.307H118.9V77.588H94.925v28.47H78.016Z" transform="translate(-8.187 -36.414)"/>
  </g>
</svg>
