<svg xmlns="http://www.w3.org/2000/svg" width="95.043" height="76.935" viewBox="0 0 95.043 76.935">
  <path d="M71.1,63.943c2.368-.631,13.034-.662,16.5,8.408,2.349,6.141,7.18,5.558,9.319.051,2.158-5.555-1.771-11.533-7.655-14.63-5.783-3.044-13.114-1.457-15.57-5.661-2.551-4.367-1.171-12.72-4.779-23.7S52.556,8.4,52.556,8.4s-6.248,17.091-5.279,22.849c-8.8-7.631-31.2-15.678-31.2-15.678s4.383,18.047,11.191,28.108C18,45.194,2.479,54.019,2.479,54.019s15.8,11.941,30.356,13.763c-3.14,6.694-11.176,14.06-11.176,14.06s18.117,7.681,30.551.253S66.61,65.138,71.1,63.943Z" transform="translate(-2.479 -8.397)" fill="#db7d4f"/>
</svg>
