<svg xmlns="http://www.w3.org/2000/svg" width="500" height="233.511" viewBox="0 0 500 233.511">
  <path d="M.416,196.39c-5.135,29.413,38.321,53.359,70.617,70.651C91.419,277.957,32.968,290,40.48,310.473c13.817,46.1,112.478-12.141,122.527,1.888s-18.52,15.234-8.225,36.968,58.614,6.935,82.353-10.554,32.087-50.6,46.616-61.944,39.785-5.905,60.332-12.9,42.4-22.08,43.364-34.936-4.975-26.925-17.541-27.717-15.695,30.07-45.145,34.4-56.361,2.218-63.955-8.533S221.18,139.828,199.63,146.1s-7.3,47.419-21.425,47.01S119.383,118.28,94.866,135.96s-.958,49.74-14.383,58.867S5.551,166.977.416,196.39Z" transform="translate(0 -133.244)" fill="#00a351"/>
  <path d="M492.078,167.207c-13.178-4.976-20.136,14.6-32.972,27.318s-28.88,18.856-35.629,16.726c-9.21-2.907-62.083-39.778-97.208-34.1s-62.554,17.532-78.7,36.239c-16.578,19.208-14.82,23.8-23.151,35.9-5.114,7.425-19.626,16.316-20.7,27.2-2.156,21.885-36.414,26.131-33.368,39.278S229,334.993,241.7,344.95s19.934,9.6,32.446,11.561c16.185,2.537,42.946,21.132,100.046.952,65.844-23.27,49.7-106.989,66.419-120.692,10.027-8.215,27.3-8.324,42.939-23.555C500.758,196.454,505.887,172.422,492.078,167.207Z" transform="translate(0 -133.244)" fill="#db7d4f"/>
</svg>
