<svg xmlns="http://www.w3.org/2000/svg" width="74.068" height="90.293" viewBox="0 0 74.068 90.293">
  <path d="M86.958,92c1.043-5.061-9-21.871-9.661-27.954s8.98-20.254,3.99-25.723-8.833,4.922-11.634,2.714S74.86,18.8,67.5,15.7s-6.948,7-9.792,6.728c-4.048-.394-4.242-15.343-11.788-17.348S42,14.874,38.424,15.38,21.335,4.655,15.2,11.409,26.233,26.1,23.259,30.5s-13.8,5.728-9.145,11.707,17.232,1.961,19.375,6.139-9.321,7.306-9.511,11.459,5.232,7.2,11.805,6.774c7.492-.49,13.364-4.695,15.7-3.8,4.938,1.886-9.723,9.179-8.084,12.311s7.053,4.373,13.828,2.481c6.141-1.715,13.1-8.215,15.679-6.57s4.2,5.092,6.4,11.221c1.407,3.914,1.172,9.477,1.217,10.417C80.633,95.048,85.916,97.066,86.958,92Z" transform="translate(-12.966 -4.854)" fill="#00a351"/>
</svg>
