<svg xmlns="http://www.w3.org/2000/svg" width="44.924" height="49.187" viewBox="0 0 44.924 49.187">
  <path d="M14.248,36.033c-.026,1.377-1.663,7.143-7.1,7.612-3.682.317-4.116,3.017-1.472,5.027,2.666,2.026,6.5.83,9.089-1.868,2.541-2.653,2.82-6.859,5.472-7.534,2.754-.7,7.053,1.339,13.546,1.093s13.346-5.737,13.346-5.737S38.864,28.6,35.6,28.232C41.09,24.663,48.91,13.806,48.91,13.806s-10.428-.43-16.919,1.688C32.608,10.253,30.245.5,30.245.5s-8.9,6.685-12.14,14.265c-3.129-2.734-5.862-8.217-5.862-8.217s-6.958,8.6-4.873,16.465S14.3,33.422,14.248,36.033Z" transform="translate(-3.986 -0.502)" fill="#00a351"/>
</svg>
