<svg xmlns="http://www.w3.org/2000/svg" width="48.701" height="45.338" viewBox="0 0 48.701 45.338">
  <path d="M46.951,2.332C44.42,2.251,44.373,5.985,42.928,8.9s-3.819,4.885-5.091,4.914c-1.735.04-12.872-3.162-18.518-.156S9.7,20.268,8.034,24.388C6.329,28.619,6.9,29.3,6.18,31.84c-.439,1.56-2.392,3.915-1.942,5.829.9,3.848-4.678,6.56-3.4,8.62s11.094-.135,13.832.822,3.949.476,6.191.083c2.9-.508,8.534,1.1,17.077-5.647,9.851-7.783,2.243-21.089,4.292-24.391,1.229-1.98,4.161-3,5.937-6.5C50.126,6.8,49.6,2.418,46.951,2.332Z" transform="translate(-0.65 -2.331)"/>
</svg>
