<svg xmlns="http://www.w3.org/2000/svg" width="49.221" height="47.577" viewBox="0 0 49.221 47.577">
  <path d="M31.518,9.128c-2.476.492-3.459-5.63-8.1-4.837S22.14,18.173,20.647,19.784s-4.5-4.467-7.552-2.761S15.041,30.648,15.4,32.665,13.061,37.9,9.362,40.694,1.9,40.462.611,41.943.239,45.621,1.77,46.919s5.59.522,8.615-.994,5.179-4.915,8.025-5.285,7.432,2.323,11.967,1.6,11.456-4.468,10.17-7.985-4.539-.483-5-3.127,16.783-7.23,13.178-13.8c-1.452-3.072-9.178,2.1-8.158-1.357,1.61-5.473,3.7-12.911-.12-15.556S33.994,8.636,31.518,9.128Z" transform="translate(0 0)" fill="#fff"/>
</svg>
